<svg width="26" height="30" viewBox="0 0 26 30" fill="none" xmlns="http://www.w3.org/2000/svg">
<path d="M10.3328 1.31012H8.25882C3.07395 1.31012 1 3.77911 1 9.95157V17.3585C1 23.531 3.07395 26 8.25882 26H14.4807C19.6655 26 21.7395 23.531 21.7395 17.3585V14.8895" stroke="#041BEA" stroke-width="1.5" stroke-linecap="round" stroke-linejoin="round"/>
<path d="M15.5591 2.56932L7.38773 12.2971C7.07663 12.6675 6.76554 13.3958 6.70332 13.9267L6.25742 17.6425C6.09151 18.9881 6.88998 19.9263 8.02028 19.7411L11.1416 19.2103C11.5771 19.1362 12.1889 18.7659 12.5104 18.3955L20.6817 8.66772C22.092 6.98881 22.7557 5.03831 20.6817 2.56932C18.6078 0.100337 16.9694 0.890413 15.5591 2.56932V2.56932Z" stroke="#041BEA" stroke-width="1.5" stroke-miterlimit="10" stroke-linecap="round" stroke-linejoin="round"/>
<path d="M14.3873 3.96432C14.7312 5.4179 15.3828 6.74202 16.2798 7.80983C17.1767 8.87764 18.289 9.65338 19.51 10.0627" stroke="#041BEA" stroke-width="1.5" stroke-miterlimit="10" stroke-linecap="round" stroke-linejoin="round"/>
</svg>
