<svg width="48" height="48" viewBox="0 0 48 48" fill="none" xmlns="http://www.w3.org/2000/svg">
<path d="M41.42 38.58L34.62 31.8C36.814 29.0049 38.0044 25.5533 38 22C38 18.8355 37.0616 15.7421 35.3035 13.1109C33.5454 10.4797 31.0466 8.42894 28.1229 7.21793C25.1993 6.00693 21.9823 5.69008 18.8786 6.30744C15.7749 6.92481 12.9239 8.44866 10.6863 10.6863C8.44866 12.9239 6.92481 15.7749 6.30744 18.8786C5.69008 21.9823 6.00693 25.1993 7.21793 28.1229C8.42894 31.0466 10.4797 33.5454 13.1109 35.3035C15.7421 37.0616 18.8355 38 22 38C25.5533 38.0044 29.0049 36.814 31.8 34.62L38.58 41.42C38.7659 41.6075 38.9871 41.7563 39.2309 41.8578C39.4746 41.9593 39.736 42.0116 40 42.0116C40.264 42.0116 40.5254 41.9593 40.7692 41.8578C41.0129 41.7563 41.2341 41.6075 41.42 41.42C41.6075 41.2341 41.7563 41.0129 41.8578 40.7692C41.9593 40.5254 42.0116 40.264 42.0116 40C42.0116 39.736 41.9593 39.4746 41.8578 39.2309C41.7563 38.9871 41.6075 38.7659 41.42 38.58ZM10 22C10 19.6266 10.7038 17.3066 12.0224 15.3332C13.3409 13.3598 15.2151 11.8217 17.4078 10.9135C19.6005 10.0052 22.0133 9.76756 24.3411 10.2306C26.6689 10.6936 28.8071 11.8365 30.4853 13.5147C32.1635 15.193 33.3064 17.3312 33.7694 19.6589C34.2325 21.9867 33.9948 24.3995 33.0866 26.5922C32.1783 28.7849 30.6402 30.6591 28.6669 31.9776C26.6935 33.2962 24.3734 34 22 34C18.8174 34 15.7652 32.7357 13.5147 30.4853C11.2643 28.2349 10 25.1826 10 22Z" fill="#4BB34A"/>
</svg>
