<svg width="48" height="48" viewBox="0 0 48 48" fill="none" xmlns="http://www.w3.org/2000/svg">
<path d="M40.1 22H7.9C6.85066 22 6 22.8507 6 23.9V24.1C6 25.1493 6.85066 26 7.9 26H40.1C41.1493 26 42 25.1493 42 24.1V23.9C42 22.8507 41.1493 22 40.1 22Z" fill="#4BB34A"/>
<path d="M40.1 32H7.9C6.85066 32 6 32.8507 6 33.9V34.1C6 35.1493 6.85066 36 7.9 36H40.1C41.1493 36 42 35.1493 42 34.1V33.9C42 32.8507 41.1493 32 40.1 32Z" fill="#4BB34A"/>
<path d="M40.1 12H7.9C6.85066 12 6 12.8507 6 13.9V14.1C6 15.1493 6.85066 16 7.9 16H40.1C41.1493 16 42 15.1493 42 14.1V13.9C42 12.8507 41.1493 12 40.1 12Z" fill="#4BB34A"/>
</svg>
