<svg width="48" height="48" viewBox="0 0 48 48" fill="none" xmlns="http://www.w3.org/2000/svg">
<path d="M40.84 20.36L25.42 4.59999C25.2341 4.41253 25.0129 4.26374 24.7691 4.1622C24.5254 4.06067 24.264 4.00839 24 4.00839C23.736 4.00839 23.4746 4.06067 23.2308 4.1622C22.9871 4.26374 22.7659 4.41253 22.58 4.59999L7.15999 20.38C6.78686 20.7561 6.49218 21.2026 6.29304 21.6936C6.09391 22.1846 5.9943 22.7102 5.99999 23.24V40C5.99844 41.0238 6.38953 42.0093 7.09274 42.7534C7.79594 43.4975 8.75771 43.9437 9.77999 44H38.22C39.2423 43.9437 40.204 43.4975 40.9072 42.7534C41.6104 42.0093 42.0015 41.0238 42 40V23.24C42.0016 22.1659 41.5856 21.1332 40.84 20.36ZM20 40V28H28V40H20ZM38 40H32V26C32 25.4696 31.7893 24.9608 31.4142 24.5858C31.0391 24.2107 30.5304 24 30 24H18C17.4696 24 16.9608 24.2107 16.5858 24.5858C16.2107 24.9608 16 25.4696 16 26V40H9.99999V23.16L24 8.85999L38 23.24V40Z" fill="#4BB34A"/>
</svg>
