<svg width="50" height="50" viewBox="0 0 50 50" fill="none" xmlns="http://www.w3.org/2000/svg">
<path d="M25 22.9167C26.6481 22.9167 28.2593 22.4279 29.6297 21.5122C31.0001 20.5966 32.0682 19.2951 32.699 17.7724C33.3297 16.2496 33.4947 14.5741 33.1732 12.9576C32.8516 11.3411 32.058 9.85621 30.8925 8.69077C29.7271 7.52533 28.2422 6.73166 26.6257 6.41012C25.0092 6.08858 23.3336 6.2536 21.8109 6.88433C20.2882 7.51506 18.9867 8.58317 18.071 9.95358C17.1554 11.324 16.6666 12.9352 16.6666 14.5833C16.6666 16.7935 17.5446 18.9131 19.1074 20.4759C20.6702 22.0387 22.7898 22.9167 25 22.9167Z" fill="#4BB34A"/>
<path d="M37.5 43.75C38.0525 43.75 38.5824 43.5305 38.9731 43.1398C39.3638 42.7491 39.5833 42.2192 39.5833 41.6667C39.5833 37.7989 38.0468 34.0896 35.3119 31.3547C32.577 28.6198 28.8677 27.0833 25 27.0833C21.1322 27.0833 17.4229 28.6198 14.688 31.3547C11.9531 34.0896 10.4166 37.7989 10.4166 41.6667C10.4166 42.2192 10.6361 42.7491 11.0268 43.1398C11.4175 43.5305 11.9474 43.75 12.5 43.75H37.5Z" fill="#4BB34A"/>
</svg>
