<svg width="16" height="13" viewBox="0 0 16 13" fill="none" xmlns="http://www.w3.org/2000/svg">
<path d="M5.94937 10.9275V2.07251C5.94937 1.23251 5.60767 0.900005 4.73633 0.900005H2.51528C1.64395 0.900005 1.30225 1.23251 1.30225 2.07251V10.9275C1.30225 11.7675 1.64395 12.1 2.51528 12.1H4.71925C5.60767 12.1 5.94937 11.7675 5.94937 10.9275V10.9275ZM14.9702 10.9275V2.07251C14.9702 1.23251 14.6285 0.900005 13.7572 0.900005H11.5532C10.6819 0.900005 10.3402 1.23251 10.3402 2.07251V10.9275C10.3402 11.7675 10.6819 12.1 11.5532 12.1H13.7572C14.6285 12.1 14.9702 11.7675 14.9702 10.9275V10.9275Z" fill="#FDC534" stroke="black" stroke-width="1.5" stroke-linecap="round" stroke-linejoin="round"/>
</svg>
