<svg width="21" height="19" viewBox="0 0 21 19" fill="none" xmlns="http://www.w3.org/2000/svg">
<path d="M18.7044 17.4167L17.0314 15.8333M9.92136 16.625C10.9649 16.625 11.9983 16.4305 12.9624 16.0525C13.9265 15.6746 14.8025 15.1206 15.5404 14.4222C16.2783 13.7238 16.8637 12.8947 17.263 11.9823C17.6624 11.0698 17.8679 10.0918 17.8679 9.10417C17.8679 8.11652 17.6624 7.13854 17.263 6.22607C16.8637 5.3136 16.2783 4.48451 15.5404 3.78613C14.8025 3.08776 13.9265 2.53378 12.9624 2.15582C11.9983 1.77786 10.9649 1.58333 9.92136 1.58333C7.81381 1.58333 5.79258 2.3757 4.30231 3.78613C2.81205 5.19656 1.97482 7.10952 1.97482 9.10417C1.97482 11.0988 2.81205 13.0118 4.30231 14.4222C5.79258 15.8326 7.81381 16.625 9.92136 16.625V16.625Z" stroke="black" stroke-width="1.5" stroke-linecap="round" stroke-linejoin="round"/>
</svg>
