<svg width="23" height="27" viewBox="0 0 23 27" fill="none" xmlns="http://www.w3.org/2000/svg">
<path d="M22 5.975C18.115 5.5625 14.2067 5.35 10.31 5.35C8 5.35 5.69 5.475 3.38 5.725L1 5.975M7.41667 4.7125L7.67333 3.075C7.86 1.8875 8 1 9.97167 1H13.0283C15 1 15.1517 1.9375 15.3267 3.0875L15.5833 4.7125M19.4917 9.925L18.7333 22.5125C18.605 24.475 18.5 26 15.245 26H7.755C4.5 26 4.395 24.475 4.26667 22.5125L3.50833 9.925M9.55167 19.125H13.4367M8.58333 14.125H14.4167" stroke="#FF0000" stroke-width="1.5" stroke-linecap="round" stroke-linejoin="round"/>
</svg>
