<svg width="27" height="31" viewBox="0 0 27 31" fill="none" xmlns="http://www.w3.org/2000/svg">
<path d="M9.34368 6.17853L3.9272 9.24009L1.45652 5.47201C1.0233 4.80362 0.891741 4.00324 1.09048 3.24513C1.28922 2.48702 1.80217 1.83257 2.51764 1.42427C3.23683 1.02166 4.09804 0.899388 4.91377 1.08409C5.72949 1.26879 6.43368 1.74551 6.873 2.41045L9.34368 6.17853ZM12.432 11.3155L7.42732 14.1415C6.07065 14.9005 5.07126 16.1065 4.6281 17.5194C4.18494 18.9322 4.33051 20.4484 5.03583 21.766L8.28256 27.9186C9.32784 29.9056 11.8619 30.5974 13.8891 29.4346L24.0727 23.6795C26.1158 22.5314 26.6067 20.1322 25.1972 18.3512L20.8102 12.8463C18.9096 10.4618 15.3462 9.66694 12.432 11.3155Z" stroke="#827D1A" stroke-width="1.5" stroke-linecap="round" stroke-linejoin="round"/>
<path d="M16.3757 22.5756L18.9889 26.5645M12.3212 24.8718L14.9344 28.8606M20.4301 20.2794L23.0433 24.2683M10.7485 5.33666L2.63171 9.929L5.92595 14.9585L14.0428 10.3662L10.7485 5.33666V5.33666Z" stroke="#827D1A" stroke-width="1.5" stroke-linecap="round" stroke-linejoin="round"/>
</svg>
